# xmcd
#
# Track frame offsets: 
#        150
#        21580
#        40640
#        61542
#        88382
#        110422
#        135392
#        156277
#        175655
#        197147
#        220790
#        249007
#        268608
#        291300
#
# Disc length: 4083 seconds
#
# Revision: 0
# Processed by: cddbd v1.5.2PL0 Copyright (c) Steve Scherf et al.
# Submitted via: ExactAudioCopy v1.0b3
#
DISCID=c00ff10e
DTITLE=Various Artist - Mot Thoi De Nho
DYEAR=1989
DGENRE=
TTITLE0=Giao Linh - Trong con hy vong
TTITLE1=Huong Lan - Me Hau Giang
TTITLE2=Khanh Ly - Goi em hanh ly
TTITLE3=Duy Quang - Mot thoi de nho
TTITLE4=Thanh Mai - Mong sau
TTITLE5=Ngoc Lan - Tuong khong con nhin thay nhau
TTITLE6=Son Ca - Ngay xua len nam len ba
TTITLE7=Hai Ly - Nghin dem nhu mot
TTITLE8=Thanh Thuy - Hoi tiec
TTITLE9=Le Thu - Goi nguoi o lai
TTITLE10=Elvis Phuong - Nguoi hung co don
TTITLE11=Ngoc Minh - Mot thoi uyen uong
TTITLE12=Bang Chau - Tuong niem
TTITLE13=Diem Chi - Hoa binh oi Viet Nam oi
EXTD=
EXTT0=
EXTT1=
EXTT2=
EXTT3=
EXTT4=
EXTT5=
EXTT6=
EXTT7=
EXTT8=
EXTT9=
EXTT10=
EXTT11=
EXTT12=
EXTT13=
PLAYORDER=
